<svg width="33" height="17" viewBox="0 0 33 17" fill="none" xmlns="http://www.w3.org/2000/svg">
<path d="M0.388335 16.6216C0.642214 16.8642 0.983027 17 1.33792 17C1.69281 17 2.03362 16.8642 2.2875 16.6216L16.5 3.06776L30.7097 16.6216C30.9635 16.8642 31.3043 17 31.6592 17C32.0141 17 32.3549 16.8642 32.6088 16.6216C32.7326 16.5037 32.831 16.3627 32.8982 16.2069C32.9654 16.0512 33 15.8839 33 15.7148C33 15.5458 32.9654 15.3785 32.8982 15.2227C32.831 15.067 32.7326 14.926 32.6088 14.8081L17.4922 0.394826C17.2268 0.14168 16.8707 8.23747e-07 16.5 8.39951e-07C16.1293 8.56156e-07 15.7732 0.14168 15.5078 0.394827L0.391178 14.8081C0.267381 14.926 0.168986 15.067 0.1018 15.2227C0.0346143 15.3785 -6.35649e-08 15.5458 -5.61761e-08 15.7148C-4.87872e-08 15.8839 0.0346143 16.0512 0.1018 16.2069C0.168986 16.3627 0.267381 16.5037 0.391178 16.6216L0.388335 16.6216Z" fill="#EF7C00"/>
</svg>
