<svg width="27" height="51" viewBox="0 0 27 51" fill="none" xmlns="http://www.w3.org/2000/svg">
<path d="M26.399 50.262C26.7843 49.8707 27 49.3454 27 48.7984C27 48.2515 26.7843 47.7262 26.399 47.3349L4.87233 25.4302L26.399 3.52995C26.7843 3.13866 27 2.6134 27 2.06643C27 1.51946 26.7843 0.994186 26.399 0.602901C26.2117 0.412102 25.9878 0.260452 25.7404 0.156902C25.4931 0.053356 25.2273 1.12891e-05 24.9589 1.12657e-05C24.6904 1.12422e-05 24.4246 0.0533559 24.1773 0.156902C23.93 0.260452 23.706 0.412101 23.5188 0.602901L0.627078 23.901C0.225022 24.3101 2.27313e-06 24.8589 2.22318e-06 25.4302C2.17323e-06 26.0016 0.225022 26.5503 0.627077 26.9595L23.5187 50.2576C23.706 50.4484 23.93 50.6 24.1773 50.7036C24.4246 50.8071 24.6904 50.8605 24.9589 50.8605C25.2273 50.8605 25.4931 50.8071 25.7404 50.7036C25.9878 50.6 26.2117 50.4484 26.399 50.2576L26.399 50.262Z" fill="#BFC1C7"/>
</svg>
