<svg width="27" height="51" viewBox="0 0 27 51" fill="none" xmlns="http://www.w3.org/2000/svg">
<path d="M0.601019 0.598512C0.215711 0.989798 0 1.51507 0 2.06204C0 2.60901 0.215711 3.13427 0.601019 3.52556L22.1277 25.4302L0.601019 47.3305C0.215711 47.7218 0 48.2471 0 48.794C0 49.341 0.215711 49.8663 0.601019 50.2576C0.788306 50.4484 1.01223 50.6 1.25957 50.7036C1.50692 50.8071 1.77266 50.8605 2.04114 50.8605C2.30961 50.8605 2.57536 50.8071 2.8227 50.7036C3.07004 50.6 3.29397 50.4484 3.48125 50.2576L26.3729 26.9595C26.775 26.5503 27 26.0016 27 25.4302C27 24.8589 26.775 24.3101 26.3729 23.901L3.48125 0.602894C3.29397 0.412095 3.07004 0.260445 2.8227 0.156897C2.57536 0.0533486 2.30961 0 2.04114 0C1.77266 0 1.50692 0.0533486 1.25957 0.156897C1.01223 0.260445 0.788306 0.412095 0.601019 0.602894V0.598512Z" fill="#BFC1C7"/>
</svg>
