<svg width="30" height="19" viewBox="0 0 30 19" fill="none" xmlns="http://www.w3.org/2000/svg">
<path d="M29.3122 1.97539C29.5218 1.26196 29.3122 0.73877 28.3211 0.73877H25.0379C24.2025 0.73877 23.8207 1.19138 23.6111 1.68848C23.6111 1.68848 21.9418 5.86016 19.5764 8.56508C18.8128 9.35216 18.464 9.60071 18.0478 9.60071C17.8397 9.60071 17.5373 9.35216 17.5373 8.63872V1.97539C17.5373 1.11927 17.2963 0.73877 16.6001 0.73877H11.441C10.92 0.73877 10.6056 1.13461 10.6056 1.51204C10.6056 2.32214 11.7883 2.50932 11.9096 4.79231V9.74493C11.9096 10.8297 11.7195 11.0276 11.3003 11.0276C10.1879 11.0276 7.48112 6.84056 5.87471 2.0475C5.56181 1.1162 5.24592 0.740304 4.40753 0.740304H1.12584C0.18714 0.740304 0 1.19291 0 1.69002C0 2.58296 1.11236 7.00166 5.18154 12.8457C7.89433 16.8363 11.7135 18.9996 15.1928 18.9996C17.2783 18.9996 17.5358 18.5194 17.5358 17.6909V14.6745C17.5358 13.7141 17.7349 13.5208 18.3951 13.5208C18.8802 13.5208 19.7156 13.7724 21.6634 15.6948C23.8881 17.9747 24.2564 18.9981 25.5065 18.9981H28.7882C29.7254 18.9981 30.194 18.5179 29.9245 17.5697C29.6295 16.6261 28.5666 15.253 27.1563 13.6282C26.3898 12.7015 25.2445 11.7042 24.8956 11.2056C24.4091 10.5627 24.5498 10.2789 24.8956 9.70811C24.8971 9.70964 28.896 3.93772 29.3122 1.97539V1.97539Z" fill="#EF7C00"/>
</svg>
